<svg xmlns="http://www.w3.org/2000/svg" viewBox="0 0 32 32" width="32" height="32">
  <!-- Rounded background -->
  <rect width="32" height="32" rx="8" fill="#0f172a"/>
  <!-- Ticket shape -->
  <path d="M8 10c0-1.1.9-2 2-2h12c1.1 0 2 .9 2 2v3.5c-1.1 0-2 .9-2 2s.9 2 2 2V22c0 1.1-.9 2-2 2H10c-1.1 0-2-.9-2-2v-3.5c1.1 0 2-.9 2-2s-.9-2-2-2V10z" fill="url(#ticketGrad)"/>
  <!-- Dashed ticket divider -->
  <line x1="13" y1="10" x2="13" y2="22" stroke="#0f172a" stroke-width="1" stroke-dasharray="1.5 1.5"/>
  <!-- Inner ticket holes -->
  <circle cx="13" cy="9.5" r="0.75" fill="#0f172a"/>
  <circle cx="13" cy="22.5" r="0.75" fill="#0f172a"/>
  <!-- Gradients -->
  <defs>
    <linearGradient id="ticketGrad" x1="8" y1="8" x2="24" y2="24" gradientUnits="userSpaceOnUse">
      <stop offset="0%" stop-color="#6366f1"/>
      <stop offset="100%" stop-color="#10b981"/>
    </linearGradient>
  </defs>
</svg>
